# xmcd
#
# Track frame offsets:
#       150
#       7788
#       25982
#       39409
#       60430
#       75149
#       87635
#       105190
#       114073
#       130891
#       142175
#       157270
#       162507
#       180129
#       193141
#       209100
#       224508
#       239127
#       256262
#       269018
#       289765
#       315124
#       328509
#
# Disc length: 4657 seconds
#
# Revision: 0
# Processed by: cddbd v1.5.1PL0 Copyright (c) Steve Scherf et al.
# Submitted via: WaveLab 4.01
#
DISCID=42122f17
DTITLE=Milkwood - hin&weg
DYEAR=1900
DGENRE=
TTITLE0=Change
TTITLE1=Start
TTITLE2=The World
TTITLE3=Kite
TTITLE4=Immerhin
TTITLE5=Aceme
TTITLE6=Blizzard
TTITLE7=Raider
TTITLE8=RegenSonne
TTITLE9=Jagen
TTITLE10=GegenGut&Böse
TTITLE11=WürdeGerne
TTITLE12=Hin&Weg
TTITLE13=YouDriveMe
TTITLE14=Weiß
TTITLE15=TogehterYeah!
TTITLE16=Einst
TTITLE17=Meinungslos
TTITLE18=TheHunteIsOver
TTITLE19=Repetition
TTITLE20=LetsGetOld
TTITLE21=Entsprungen
TTITLE22=WohinDuWillst
EXTD=
EXTT0=
EXTT1=
EXTT2=
EXTT3=
EXTT4=
EXTT5=
EXTT6=
EXTT7=
EXTT8=
EXTT9=
EXTT10=
EXTT11=
EXTT12=
EXTT13=
EXTT14=
EXTT15=
EXTT16=
EXTT17=
EXTT18=
EXTT19=
EXTT20=
EXTT21=
EXTT22=
PLAYORDER=
